HIERARCHY
ROOT Hips
{
	OFFSET 0.00000 0.00000 0.00000
	CHANNELS 6 Xposition Yposition Zposition Zrotation Yrotation Xrotation 
	JOINT LHipJoint
	{
		OFFSET 0 0 0
		CHANNELS 3 Zrotation Yrotation Xrotation
		JOINT LeftUpLeg
		{
			OFFSET 1.81424 -1.42316 1.18090
			CHANNELS 3 Zrotation Yrotation Xrotation
			JOINT LeftLeg
			{
				OFFSET 2.15837 -5.93008 0.00000
				CHANNELS 3 Zrotation Yrotation Xrotation
				JOINT LeftFoot
				{
					OFFSET 2.51759 -6.91701 0.00000
					CHANNELS 3 Zrotation Yrotation Xrotation
					JOINT LeftToeBase
					{
						OFFSET 0.18318 -0.50327 1.95113
						CHANNELS 3 Zrotation Yrotation Xrotation
						End Site
						{
							OFFSET 0.00000 -0.00000 1.01524
						}
					}
				}
			}
		}
	}
	JOINT RHipJoint
	{
		OFFSET 0 0 0
		CHANNELS 3 Zrotation Yrotation Xrotation
		JOINT RightUpLeg
		{
			OFFSET -1.43917 -1.42316 1.18090
			CHANNELS 3 Zrotation Yrotation Xrotation
			JOINT RightLeg
			{
				OFFSET -2.25237 -6.18833 0.00000
				CHANNELS 3 Zrotation Yrotation Xrotation
				JOINT RightFoot
				{
					OFFSET -2.46496 -6.77243 0.00000
					CHANNELS 3 Zrotation Yrotation Xrotation
					JOINT RightToeBase
					{
						OFFSET -0.26285 -0.72219 1.76148
						CHANNELS 3 Zrotation Yrotation Xrotation
						End Site
						{
							OFFSET -0.00000 -0.00000 0.95109
						}
					}
				}
			}
		}
	}
	JOINT LowerBack
	{
		OFFSET 0 0 0
		CHANNELS 3 Zrotation Yrotation Xrotation
		JOINT Spine
		{
			OFFSET -0.08725 1.93754 -0.28890
			CHANNELS 3 Zrotation Yrotation Xrotation
			JOINT Spine1
			{
				OFFSET 0.01195 1.94849 0.05967
				CHANNELS 3 Zrotation Yrotation Xrotation
				JOINT Neck
				{
					OFFSET 0 0 0
					CHANNELS 3 Zrotation Yrotation Xrotation
					JOINT Neck1
					{
						OFFSET 0.02762 1.60124 0.34160
						CHANNELS 3 Zrotation Yrotation Xrotation
						JOINT Head
						{
							OFFSET -0.04785 1.66713 -0.24070
							CHANNELS 3 Zrotation Yrotation Xrotation
							End Site
							{
								OFFSET -0.02188 1.68591 -0.11959
							}
						}
					}
				}
				JOINT LeftShoulder
				{
					OFFSET 0 0 0
					CHANNELS 3 Zrotation Yrotation Xrotation
					JOINT LeftArm
					{
						OFFSET 2.59610 1.78696 -0.28854
						CHANNELS 3 Zrotation Yrotation Xrotation
						JOINT LeftForeArm
						{
							OFFSET 5.17853 -0.00000 0.00000
							CHANNELS 3 Zrotation Yrotation Xrotation
							JOINT LeftHand
							{
								OFFSET 3.40399 -0.00000 -0.00000
								CHANNELS 3 Zrotation Yrotation Xrotation
								JOINT LeftFingerBase
								{
									OFFSET 0 0 0
									CHANNELS 3 Zrotation Yrotation Xrotation
									JOINT LeftHandIndex1
									{
										OFFSET 0.70896 -0.00000 -0.00000
										CHANNELS 3 Zrotation Yrotation Xrotation
										End Site
										{
											OFFSET 0.57159 -0.00000 -0.00000
										}
									}
								}
								JOINT LThumb
								{
									OFFSET 0 0 0
									CHANNELS 3 Zrotation Yrotation Xrotation
									End Site
									{
										OFFSET 0.58031 -0.00000 0.58031
									}
								}
							}
						}
					}
				}
				JOINT RightShoulder
				{
					OFFSET 0 0 0
					CHANNELS 3 Zrotation Yrotation Xrotation
					JOINT RightArm
					{
						OFFSET -2.87749 1.55486 -0.73085
						CHANNELS 3 Zrotation Yrotation Xrotation
						JOINT RightForeArm
						{
							OFFSET -5.42351 -0.00000 -0.00000
							CHANNELS 3 Zrotation Yrotation Xrotation
							JOINT RightHand
							{
								OFFSET -3.42066 -0.00000 -0.00000
								CHANNELS 3 Zrotation Yrotation Xrotation
								JOINT RightFingerBase
								{
									OFFSET 0 0 0
									CHANNELS 3 Zrotation Yrotation Xrotation
									JOINT RightHandIndex1
									{
										OFFSET -0.74361 -0.00000 -0.00000
										CHANNELS 3 Zrotation Yrotation Xrotation
										End Site
										{
											OFFSET -0.59952 -0.00000 -0.00000
										}
									}
								}
								JOINT RThumb
								{
									OFFSET 0 0 0
									CHANNELS 3 Zrotation Yrotation Xrotation
									End Site
									{
										OFFSET -0.60867 -0.00000 0.60867
									}
								}
							}
						}
					}
				}
			}
		}
	}
}
MOTION
Frames: 13
Frame Time: .0083333
23.7064 2.4141 -1.3839 0 0 0 0 0 0 -21 0 0 0 0 0 0 0 0 0 0 0 0 0 0 21 0 0 0 0 0 0 0 0 0 0 0 0 0 0 0 0 0 0 0 0 0 0 -16 0 0 21 0 0 11 0 0 0 -8 0 0 0 0 0 0 0 0 0 0 0 0 0 0 0 0 0 0 0 0 8 0 0 0 0 0 0 0 0 0 0 0 0 0 0 0 0 0
23.7064 2.4141 -1.3839 -66.3547 73.1968 30.3827 0.0000 0.0000 0.0000 -13.8914 4.3370 -6.5041 1.5372 7.8270 22.1899 -0.0618 -12.9288 -8.2520 0.7367 5.4833 15.2923 0.0000 0.0000 0.0000 28.6403 -35.0940 -60.7065 -14.3459 -19.2156 73.2582 0.0783 -7.9062 -9.4368 -0.3113 3.5871 -9.9177 -12.3796 4.7206 -4.1986 3.2995 6.9116 -0.5160 10.6582 3.5474 -0.0669 3.3519 1.7255 -22.5276 -10.5052 2.2105 -6.0515 -3.6336 0.9294 1.8577 -0.0000 0.0000 0.0000 -66.4540 -2.8458 118.6203 17.2254 -27.1539 -4.1897 -0.0000 0.0000 -30.3022 12.3084 -31.1414 -6.4378 -7.1250 0.0000 -0.0000 -10.8881 -1.2522 11.3282 -0.0000 0.0000 0.0000 68.6299 13.8715 -118.9474 -8.3106 14.0551 -1.0262 0.0000 -0.0000 -154.0380 -19.1569 33.4612 -10.8433 7.1250 -0.0000 -0.0000 7.2940 4.7467 7.9349
23.7099 2.4140 -1.3813 -66.7485 73.3104 30.1122 0.0000 0.0000 0.0000 -13.7268 4.2146 -6.6737 1.5571 7.8752 22.3355 -0.0631 -12.9162 -8.2244 0.8014 5.7138 15.9562 0.0000 0.0000 0.0000 28.8618 -35.0291 -60.7622 -14.3213 -19.2086 73.1834 0.0775 -7.9228 -9.4874 -0.2927 3.4792 -9.6158 -12.2686 4.7074 -4.3276 3.3574 6.9077 -0.5520 10.6703 3.5469 -0.0259 3.1296 1.6725 -22.7864 -10.2697 2.2128 -5.5813 -3.5224 0.9148 2.0271 -0.0000 -0.0000 0.0000 -66.5210 -2.9308 118.9308 17.2174 -27.1434 -4.1860 -0.0000 0.0000 -30.5524 12.3914 -31.1192 -6.4781 -7.1250 0.0000 -0.0000 -10.8392 -1.2426 11.2737 -0.0000 -0.0000 0.0000 68.6372 13.7131 -118.3068 -8.2414 13.9435 -1.0095 0.0000 -0.0000 -154.7720 -19.1170 33.4718 -10.8225 7.1250 -0.0000 -0.0000 7.3176 4.7494 7.9613
23.7135 2.4133 -1.3790 -67.2039 73.4333 29.8362 0.0000 0.0000 0.0000 -13.5324 4.1882 -6.9476 1.5807 7.9319 22.5073 -0.0751 -12.9900 -8.1166 0.8790 5.9769 16.7175 0.0000 0.0000 0.0000 29.1528 -34.9553 -60.8933 -14.2964 -19.2015 73.1076 0.0800 -7.9415 -9.4528 -0.2966 3.5016 -9.6786 -12.1385 4.6903 -4.5127 3.4170 6.9045 -0.6061 10.6782 3.5472 0.0293 3.4909 1.7460 -22.4787 -10.7959 2.2147 -5.9296 -3.7468 0.9139 1.8992 -0.0000 -0.0000 0.0000 -66.5801 -3.1006 119.6359 17.2295 -27.1593 -4.1916 -0.0000 0.0000 -31.2091 12.6585 -30.9752 -6.5938 -7.1250 0.0000 -0.0000 -10.6757 -1.1402 11.0786 -0.0000 -0.0000 0.0000 68.6380 13.5059 -117.5816 -8.1040 13.7213 -0.9766 0.0000 -0.0000 -155.5710 -19.0204 33.4173 -10.7498 7.1250 -0.0000 -0.0000 7.3636 4.6754 8.0034
23.7166 2.4125 -1.3769 -67.3732 73.5322 29.7413 0.0000 0.0000 0.0000 -13.4405 4.1498 -7.0815 1.5997 7.9770 22.6443 -0.0622 -13.0190 -8.3159 0.8368 5.8355 16.3079 0.0000 0.0000 0.0000 29.3043 -34.9776 -60.9549 -14.2763 -19.1957 73.0464 0.0861 -7.9566 -9.3146 -0.3115 3.5883 -9.9211 -12.0834 4.7011 -4.5903 3.4324 6.9272 -0.6389 10.6695 3.5612 0.0365 3.5256 1.7521 -22.5493 -10.8227 2.2249 -5.7222 -3.7597 0.9057 1.9740 0.0000 0.0000 0.0000 -66.5627 -3.2689 120.2604 17.2611 -27.2008 -4.2060 -0.0000 0.0000 -31.7436 12.8519 -30.8513 -6.6731 -7.1250 0.0000 -0.0000 -10.5555 -1.0467 10.9325 0.0000 0.0000 0.0000 68.6606 13.1882 -116.6000 -7.8820 13.3613 -0.9247 0.0000 -0.0000 -156.7010 -18.8547 33.3800 -10.6410 7.1250 -0.0000 -0.0000 7.4504 4.6052 8.0910
23.7190 2.4122 -1.3747 -67.4280 73.6105 29.7766 0.0000 0.0000 0.0000 -13.4042 4.0268 -7.1958 1.6136 8.0100 22.7444 -0.0478 -12.9251 -8.4388 0.7944 5.6892 15.8854 0.0000 0.0000 0.0000 29.4359 -34.9845 -61.0557 -14.2623 -19.1917 73.0040 0.0884 -7.9160 -9.1795 -0.3154 3.6105 -9.9832 -12.0814 4.7253 -4.6697 3.4212 6.9697 -0.7154 10.6588 3.5915 -0.0101 3.7521 1.7415 -22.4262 -10.9835 2.1534 -5.7695 -3.8532 0.8639 1.9450 0.0000 0.0000 0.0000 -66.4999 -3.5915 121.5940 17.3455 -27.3110 -4.2446 -0.0000 0.0000 -32.9442 13.1001 -30.8176 -6.7986 -7.1250 0.0000 -0.0000 -10.4111 -1.0506 10.7786 0.0000 0.0000 0.0000 68.7251 12.8249 -115.6126 -7.6964 13.0595 -0.8822 0.0000 -0.0000 -157.8910 -18.6409 33.3791 -10.5140 7.1250 -0.0000 -0.0000 7.5689 4.5621 8.2166
23.7158 2.4129 -1.3740 -67.3313 73.6507 29.8755 0.0000 0.0000 0.0000 -13.4311 3.8987 -7.2077 1.6211 8.0276 22.7980 -0.0315 -12.7893 -8.5567 0.7295 5.4573 15.2175 0.0000 0.0000 0.0000 29.4324 -35.0091 -61.0616 -14.2588 -19.1907 72.9933 0.0852 -7.8051 -9.0702 -0.3163 3.6154 -9.9971 -12.0905 4.7104 -4.6475 3.4074 6.9464 -0.7336 10.6458 3.5822 -0.0349 3.8089 1.7552 -22.3350 -10.9741 2.1512 -5.8704 -3.8597 0.8684 1.9019 0.0000 -0.0000 0.0000 -66.4655 -4.1411 123.6591 17.5026 -27.5156 -4.3170 -0.0000 0.0000 -35.1169 13.6126 -30.6106 -7.0295 -7.1250 0.0000 -0.0000 -10.1009 -0.9239 10.4249 0.0000 -0.0000 0.0000 68.8455 12.7291 -114.5977 -7.6322 12.9549 -0.8678 0.0000 -0.0000 -158.9270 -18.3737 33.4370 -10.3714 7.1250 -0.0000 -0.0000 7.7249 4.5680 8.3896
23.7093 2.4136 -1.3732 -66.8653 73.6407 30.2969 0.0000 0.0000 0.0000 -13.5912 3.7887 -7.1633 1.6220 8.0297 22.8045 0.0018 -12.7155 -8.9455 0.6275 5.0690 14.1054 0.0000 0.0000 0.0000 29.2691 -35.0646 -61.0595 -14.2677 -19.1932 73.0204 0.0832 -7.7092 -8.9565 -0.3316 3.7011 -10.2371 -12.1966 4.6996 -4.5842 3.3507 6.9259 -0.7747 10.6349 3.5787 -0.1142 3.8929 1.7707 -22.1070 -11.0153 2.1439 -5.9766 -3.8865 0.8704 1.8398 0.0000 0.0000 0.0000 -66.4765 -4.3946 124.8572 17.5602 -27.5904 -4.3436 -0.0000 0.0000 -36.3317 13.8993 -30.4962 -7.1579 -7.1250 0.0000 -0.0000 -9.9269 -0.8547 10.2278 0.0000 0.0000 0.0000 69.0099 12.5559 -113.4718 -7.5834 12.8754 -0.8569 0.0000 -0.0000 -160.0670 -18.0650 33.5987 -10.2315 7.1250 -0.0000 -0.0000 7.9172 4.6700 8.6153
23.7051 2.4145 -1.3719 -66.4940 73.6555 30.6398 0.0000 0.0000 0.0000 -13.7132 3.6843 -7.1031 1.6178 8.0199 22.7745 0.0212 -12.5557 -9.0888 0.6310 5.0828 14.1448 0.0000 0.0000 0.0000 29.1521 -35.1121 -61.0633 -14.2767 -19.1958 73.0476 0.0809 -7.6421 -8.9032 -0.3319 3.7024 -10.2408 -12.2536 4.6859 -4.5084 3.2902 6.8972 -0.8472 10.5885 3.5752 -0.2253 3.9221 1.7584 -21.8763 -10.9708 2.1125 -6.0496 -3.8792 0.8623 1.7824 -0.0000 -0.0000 0.0000 -66.4579 -3.9653 123.6319 17.4286 -27.4193 -4.2828 -0.0000 0.0000 -35.0364 13.5049 -30.6505 -6.9805 -7.1250 0.0000 -0.0000 -10.1659 -0.9470 10.4982 -0.0000 -0.0000 0.0000 69.2256 12.3340 -112.3089 -7.5633 12.8425 -0.8524 0.0000 -0.0000 -161.1820 -17.9382 33.5962 -10.1557 7.1250 -0.0000 -0.0000 7.9870 4.6431 8.6893
23.7064 2.4144 -1.3708 -66.4670 73.7150 30.6811 0.0000 0.0000 0.0000 -13.7127 3.6143 -7.0750 1.6118 8.0058 22.7316 0.0199 -12.3496 -8.9312 0.7023 5.3567 14.9287 0.0000 0.0000 0.0000 29.1568 -35.1274 -61.0590 -14.2752 -19.1954 73.0431 0.0789 -7.6160 -8.9142 -0.3275 3.6780 -10.1725 -12.1797 4.6348 -4.5059 3.2829 6.8236 -0.8739 10.5382 3.5391 -0.2253 3.7491 1.7656 -21.8294 -10.6926 2.1597 -5.9717 -3.7591 0.8945 1.7926 0.0000 0.0000 0.0000 -66.5128 -3.0761 120.4853 17.1552 -27.0619 -4.1577 -0.0000 0.0000 -31.8950 12.5531 -30.9775 -6.5380 -7.1250 0.0000 -0.0000 -10.7359 -1.1268 11.1409 0.0000 0.0000 0.0000 69.4019 12.2046 -110.8457 -7.5019 12.7423 -0.8388 0.0000 -0.0000 -162.4950 -19.8872 33.9588 -11.4238 7.1250 -0.0000 -0.0000 6.9614 5.3954 7.6394
23.7102 2.4136 -1.3694 -66.4114 73.7620 30.7860 0.0000 0.0000 0.0000 -13.7188 3.5704 -7.1091 1.6043 7.9881 22.6779 0.0524 -12.0790 -9.1793 0.5861 4.9019 13.6291 0.0000 0.0000 0.0000 29.1608 -35.1216 -61.0953 -14.2642 -19.1922 73.0097 0.0811 -7.6609 -8.9299 -0.3555 3.8305 -10.6004 -12.2135 4.6753 -4.5808 3.2811 6.8899 -0.9136 10.5594 3.5776 -0.2474 3.8506 1.7545 -21.7340 -10.7347 2.1225 -5.8939 -3.7915 0.8696 1.8028 -0.0000 -0.0000 0.0000 -66.6954 -2.4132 117.8723 16.8364 -26.6415 -4.0137 -0.0000 0.0000 -28.9727 11.6702 -31.4169 -6.1451 -7.1250 0.0000 -0.0000 -11.2712 -1.4303 11.7771 -0.0000 -0.0000 0.0000 69.4839 11.8409 -109.4188 -7.3160 12.4382 -0.7983 0.0000 -0.0000 -164.2510 -18.7129 32.1428 -10.2160 7.1250 -0.0000 -0.0000 7.3666 3.3345 7.8463
23.7118 2.4135 -1.3672 -66.4670 73.7434 30.7191 0.0000 0.0000 0.0000 -13.7100 3.6327 -7.0944 1.5965 7.9696 22.6217 0.0860 -11.9144 -9.5118 0.5003 4.5346 12.5857 0.0000 0.0000 0.0000 29.1041 -35.0814 -61.0122 -14.2453 -19.1868 72.9523 0.0845 -7.7016 -8.9074 -0.4054 4.0876 -11.3232 -12.1332 4.6639 -4.5690 3.2614 6.8680 -0.9857 10.4865 3.5751 -0.3125 4.0607 1.7967 -21.3415 -11.0020 2.1198 -6.1243 -3.9097 0.8733 1.6886 0.0000 0.0000 0.0000 -66.8856 -1.7931 115.9119 16.5573 -26.2705 -3.8894 -0.0000 0.0000 -26.9935 11.1983 -31.8167 -5.9586 -7.1250 0.0000 -0.0000 -11.5677 -1.7552 12.1643 0.0000 0.0000 0.0000 69.6432 11.5294 -108.4202 -7.1883 12.2287 -0.7710 0.0000 -0.0000 -165.5150 -18.3954 33.6794 -10.4493 7.1250 -0.0000 -0.0000 7.7453 4.8149 8.4428
23.7126 2.4148 -1.3640 -66.6743 73.7652 30.4260 0.0000 0.0000 0.0000 -13.6447 3.5684 -6.9429 1.5929 7.9609 22.5955 0.0568 -12.0707 -9.2316 0.7173 5.4122 15.0880 0.0000 0.0000 0.0000 29.0627 -35.0825 -60.7984 -14.2158 -19.1782 72.8624 0.0872 -7.7084 -8.8396 -0.4045 4.0829 -11.3099 -12.0903 4.6674 -4.5665 3.3063 6.8723 -0.9345 10.5142 3.5712 -0.2612 4.0637 1.8278 -21.3593 -11.0236 2.1695 -5.9255 -3.9123 0.8873 1.7558 0.0000 -0.0000 0.0000 -67.0831 -1.6941 115.2130 16.3949 -26.0532 -3.8178 -0.0000 0.0000 -26.4370 11.0047 -31.9719 -5.8790 -7.1250 0.0000 -0.0000 -11.6882 -1.8799 12.3214 0.0000 -0.0000 0.0000 69.7115 11.4716 -108.4489 -7.1641 12.1890 -0.7659 0.0000 -0.0000 -166.0410 -21.1399 32.9189 -11.8672 7.1250 -0.0000 -0.0000 6.1140 4.6087 6.6220
